<?xml version="1.0"?>
<svg xmlns="http://www.w3.org/2000/svg" xmlns:xlink="http://www.w3.org/1999/xlink" viewBox="0 0 64 64" width="512" height="512"><defs><linearGradient id="New_Gradient_Swatch_copy" x1="16.437" y1="63.359" x2="16.631" y2="0.471" gradientUnits="userSpaceOnUse"><stop offset="0" stop-color="#e93e3a"/><stop offset="0.36" stop-color="#ed683c"/><stop offset="0.716" stop-color="#f3903f"/><stop offset="1" stop-color="#fdc70c"/></linearGradient><linearGradient id="New_Gradient_Swatch_copy-2" x1="47.369" y1="63.454" x2="47.563" y2="0.566" xlink:href="#New_Gradient_Swatch_copy"/><linearGradient id="New_Gradient_Swatch_copy-3" x1="31.91" y1="63.406" x2="32.103" y2="0.518" xlink:href="#New_Gradient_Swatch_copy"/><linearGradient id="New_Gradient_Swatch_copy-5" x1="31.882" y1="63.406" x2="32.075" y2="0.518" xlink:href="#New_Gradient_Swatch_copy"/><linearGradient id="New_Gradient_Swatch_copy-6" x1="25.526" y1="63.387" x2="25.719" y2="0.499" gradientTransform="translate(27.05 -10.033) rotate(45)" xlink:href="#New_Gradient_Swatch_copy"/><linearGradient id="New_Gradient_Swatch_copy-7" x1="22.91" y1="63.379" x2="23.103" y2="0.491" xlink:href="#New_Gradient_Swatch_copy"/><linearGradient id="New_Gradient_Swatch_copy-8" x1="25.565" y1="63.387" x2="25.759" y2="0.499" gradientTransform="translate(36.05 -6.305) rotate(45)" xlink:href="#New_Gradient_Swatch_copy"/><linearGradient id="New_Gradient_Swatch_copy-9" x1="31.937" y1="63.406" x2="32.131" y2="0.519" xlink:href="#New_Gradient_Swatch_copy"/><linearGradient id="New_Gradient_Swatch_copy-10" x1="38.293" y1="63.426" x2="38.487" y2="0.538" gradientTransform="translate(39.778 -15.305) rotate(45)" xlink:href="#New_Gradient_Swatch_copy"/><linearGradient id="New_Gradient_Swatch_copy-11" x1="40.909" y1="63.434" x2="41.103" y2="0.546" xlink:href="#New_Gradient_Swatch_copy"/><linearGradient id="New_Gradient_Swatch_copy-12" x1="38.254" y1="63.426" x2="38.447" y2="0.538" gradientTransform="translate(30.778 -19.033) rotate(45)" xlink:href="#New_Gradient_Swatch_copy"/></defs><g id="Artificial_Intelligent" data-name="Artificial Intelligent"><path d="M29,54a6,6,0,0,1-11.921.927,8.993,8.993,0,0,0,4.713-2.037L20.5,51.36a6.995,6.995,0,0,1-9.382-10.366,9.029,9.029,0,0,0,5.815-2.231l-1.315-1.507A7.03,7.03,0,0,1,11,39a2.331,2.331,0,0,1-.247-.009,6.991,6.991,0,0,1-.347-13.953A8.955,8.955,0,0,0,16,27V25a7,7,0,1,1,6.127-10.389l1.749-.969a9.005,9.005,0,0,0-6.8-4.569A6,6,0,0,1,29,10v8h2V10a8,8,0,0,0-15.938-.95A8.981,8.981,0,0,0,8.737,23.293a9,9,0,0,0-.015,17.42,8.994,8.994,0,0,0,6.34,14.238A8,8,0,0,0,31,54V50H29Z" style="fill:url(#New_Gradient_Swatch_copy)"/><path d="M62,32a8.943,8.943,0,0,0-6.737-8.707A8.981,8.981,0,0,0,48.938,9.05,8,8,0,0,0,33,10v8h2V10a6,6,0,0,1,11.922-.927,9.008,9.008,0,0,0-6.8,4.569l1.749.97A7,7,0,1,1,48,25v2a8.955,8.955,0,0,0,5.594-1.962A6.992,6.992,0,0,1,53.172,39,1.646,1.646,0,0,1,53,39a7.03,7.03,0,0,1-4.622-1.744l-1.316,1.507a9.034,9.034,0,0,0,5.816,2.231A7,7,0,0,1,43.5,51.36l-1.288,1.53a8.993,8.993,0,0,0,4.713,2.037A6,6,0,0,1,35,54V50H33v4a8,8,0,0,0,15.938.951,8.994,8.994,0,0,0,6.334-14.246A8.945,8.945,0,0,0,62,32Z" style="fill:url(#New_Gradient_Swatch_copy-2)"/><path d="M43.313,25.515l-2.828-2.828a1,1,0,0,0-1.307-.093l-2.166,1.624a11,11,0,0,0-1.639-.678l-.383-2.682A1,1,0,0,0,34,20H30a1,1,0,0,0-.99.858l-.383,2.682a10.96,10.96,0,0,0-1.639.678l-2.166-1.624a1,1,0,0,0-1.307.093l-2.828,2.828a1,1,0,0,0-.093,1.307l1.624,2.166a10.96,10.96,0,0,0-.678,1.639l-2.682.383A1,1,0,0,0,18,32v4a1,1,0,0,0,.858.99l2.682.383a10.96,10.96,0,0,0,.678,1.639l-1.624,2.166a1,1,0,0,0,.093,1.307l2.828,2.828a1,1,0,0,0,1.307.093l2.166-1.624a10.96,10.96,0,0,0,1.639.678l.383,2.682A1,1,0,0,0,30,48h4a1,1,0,0,0,.99-.858l.383-2.682a11,11,0,0,0,1.639-.678l2.166,1.624a1,1,0,0,0,1.307-.093l2.828-2.828a1,1,0,0,0,.093-1.307l-1.624-2.166a10.96,10.96,0,0,0,.678-1.639l2.682-.383A1,1,0,0,0,46,36V32a1,1,0,0,0-.858-.99l-2.682-.383a10.96,10.96,0,0,0-.678-1.639l1.624-2.166A1,1,0,0,0,43.313,25.515ZM44,32.867v2.266l-2.463.352a1,1,0,0,0-.828.743,8.892,8.892,0,0,1-.975,2.356,1,1,0,0,0,.06,1.111l1.492,1.99-1.6,1.6L37.7,41.794a1,1,0,0,0-1.111-.06,8.892,8.892,0,0,1-2.356.975,1,1,0,0,0-.743.828L33.133,46H30.867l-.352-2.463a1,1,0,0,0-.743-.828,8.892,8.892,0,0,1-2.356-.975,1,1,0,0,0-1.111.06l-1.99,1.492-1.6-1.6,1.492-1.99a1,1,0,0,0,.06-1.111,8.892,8.892,0,0,1-.975-2.356,1,1,0,0,0-.828-.743L20,35.133V32.867l2.463-.352a1,1,0,0,0,.828-.743,8.892,8.892,0,0,1,.975-2.356,1,1,0,0,0-.06-1.111l-1.492-1.99,1.6-1.6,1.99,1.492a1,1,0,0,0,1.111.06,8.892,8.892,0,0,1,2.356-.975,1,1,0,0,0,.743-.828L30.867,22h2.266l.352,2.463a1,1,0,0,0,.743.828,8.892,8.892,0,0,1,2.356.975,1,1,0,0,0,1.111-.06l1.99-1.492,1.6,1.6-1.492,1.99a1,1,0,0,0-.06,1.111,8.892,8.892,0,0,1,.975,2.356,1,1,0,0,0,.828.743Z" style="fill:url(#New_Gradient_Swatch_copy-3)"/><path d="M32,28a6,6,0,1,0,6,6A6.006,6.006,0,0,0,32,28Zm0,10a4,4,0,1,1,4-4A4,4,0,0,1,32,38Z" style="fill:url(#New_Gradient_Swatch_copy-3)"/><rect x="31" y="24" width="2" height="2" style="fill:url(#New_Gradient_Swatch_copy-5)"/><rect x="24.636" y="26.636" width="2" height="2" transform="translate(-12.033 26.222) rotate(-45)" style="fill:url(#New_Gradient_Swatch_copy-6)"/><rect x="22" y="33" width="2" height="2" style="fill:url(#New_Gradient_Swatch_copy-7)"/><rect x="24.636" y="39.364" width="2" height="2" transform="translate(-21.033 29.95) rotate(-45)" style="fill:url(#New_Gradient_Swatch_copy-8)"/><rect x="31" y="42" width="2" height="2" style="fill:url(#New_Gradient_Swatch_copy-9)"/><rect x="37.364" y="39.364" width="2" height="2" transform="translate(-17.305 38.95) rotate(-45)" style="fill:url(#New_Gradient_Swatch_copy-10)"/><rect x="40" y="33" width="2" height="2" style="fill:url(#New_Gradient_Swatch_copy-11)"/><rect x="37.364" y="26.636" width="2" height="2" transform="translate(-8.305 35.222) rotate(-45)" style="fill:url(#New_Gradient_Swatch_copy-12)"/></g></svg>
